<svg width="24" height="24" viewBox="0 0 24 24" fill="none" xmlns="http://www.w3.org/2000/svg">
<path d="M10.2392 13C9.34831 13 8.90214 14.0771 9.53211 14.7071L12.7125 17.8875C13.105 18.28 13.1021 18.9172 12.7062 19.3062V19.3062C12.3152 19.6904 11.6876 19.6876 11.3 19.3L4.70711 12.7071C4.31658 12.3166 4.31658 11.6834 4.70711 11.2929L11.3 4.70003C11.6876 4.31241 12.3152 4.30964 12.7062 4.69381V4.69381C13.1021 5.08281 13.105 5.72003 12.7125 6.11253L9.53211 9.29289C8.90214 9.92286 9.34831 11 10.2392 11H19C19.5523 11 20 11.4477 20 12V12C20 12.5523 19.5523 13 19 13H10.2392Z" fill="#1F1F1F"/>
</svg>
