<svg width="24" height="24" viewBox="0 0 24 24" fill="none" xmlns="http://www.w3.org/2000/svg">
<path d="M10.3333 4.50004C9.8731 4.50004 9.5 4.12694 9.5 3.66671V3.66671C9.5 3.20647 9.8731 2.83337 10.3333 2.83337H13.6667C14.1269 2.83337 14.5 3.20647 14.5 3.66671V3.66671C14.5 4.12694 14.1269 4.50004 13.6667 4.50004H10.3333ZM11.1667 12.8334C11.1667 13.2936 11.5398 13.6667 12 13.6667V13.6667C12.4602 13.6667 12.8333 13.2936 12.8333 12.8334V9.50004C12.8333 9.0398 12.4602 8.66671 12 8.66671V8.66671C11.5398 8.66671 11.1667 9.0398 11.1667 9.50004V12.8334ZM12 20.3334C10.9722 20.3334 10.0035 20.1355 9.09375 19.7396C8.18403 19.3438 7.38889 18.8056 6.70833 18.125C6.02778 17.4445 5.48958 16.6493 5.09375 15.7396C4.69792 14.8299 4.5 13.8612 4.5 12.8334C4.5 11.8056 4.69792 10.8368 5.09375 9.92712C5.48958 9.0174 6.02778 8.22226 6.70833 7.54171C7.38889 6.86115 8.18403 6.32296 9.09375 5.92712C10.0035 5.53129 10.9722 5.33337 12 5.33337C12.8611 5.33337 13.6875 5.47226 14.4792 5.75004C15.0355 5.94526 15.5679 6.20221 16.0762 6.52089C16.4495 6.75489 16.9406 6.72614 17.2521 6.41463L17.2917 6.37504C17.6138 6.05287 18.1362 6.05287 18.4583 6.37504V6.37504C18.7805 6.69721 18.7805 7.21954 18.4583 7.54171L18.4187 7.5813C18.1072 7.8928 18.0785 8.3839 18.3125 8.75715C18.6312 9.26549 18.8881 9.79785 19.0833 10.3542C19.3611 11.1459 19.5 11.9723 19.5 12.8334C19.5 13.8612 19.3021 14.8299 18.9063 15.7396C18.5104 16.6493 17.9722 17.4445 17.2917 18.125C16.6111 18.8056 15.816 19.3438 14.9063 19.7396C13.9965 20.1355 13.0278 20.3334 12 20.3334Z" fill="#1F1F1F"/>
</svg>
