<svg width="24" height="24" viewBox="0 0 24 24" fill="none" xmlns="http://www.w3.org/2000/svg">
<path d="M8.5 20C7.67157 20 7 19.3284 7 18.5V9C7 7.89543 6.10457 7 5 7H3.5C2.67157 7 2 6.32843 2 5.5V5.5C2 4.67157 2.67157 4 3.5 4H13.5C14.3284 4 15 4.67157 15 5.5V5.5C15 6.32843 14.3284 7 13.5 7H12C10.8954 7 10 7.89543 10 9V18.5C10 19.3284 9.32843 20 8.5 20V20ZM17.5 20C16.6716 20 16 19.3284 16 18.5V13.5C16 12.6716 15.3284 12 14.5 12V12C13.6716 12 13 11.3284 13 10.5V10.5C13 9.67157 13.6716 9 14.5 9H20.5C21.3284 9 22 9.67157 22 10.5V10.5C22 11.3284 21.3284 12 20.5 12V12C19.6716 12 19 12.6716 19 13.5V18.5C19 19.3284 18.3284 20 17.5 20V20Z" fill="#1F1F1F"/>
</svg>
