<svg width="24" height="24" viewBox="0 0 24 24" fill="none" xmlns="http://www.w3.org/2000/svg">
<path fill-rule="evenodd" clip-rule="evenodd" d="M11.8217 2C6.39057 2 2 6.42294 2 11.8947C2 16.2686 4.81319 19.971 8.71582 21.2814C9.20375 21.3799 9.38248 21.0685 9.38248 20.8065C9.38248 20.5771 9.3664 19.7909 9.3664 18.9716C6.63423 19.5615 6.06528 17.7921 6.06528 17.7921C5.6262 16.6453 4.97563 16.3506 4.97563 16.3506C4.08139 15.7445 5.04077 15.7445 5.04077 15.7445C6.03271 15.81 6.55321 16.7601 6.55321 16.7601C7.43116 18.2672 8.8459 17.8413 9.41505 17.5792C9.49627 16.9403 9.75662 16.498 10.0331 16.2523C7.85396 16.0229 5.56127 15.1711 5.56127 11.3704C5.56127 10.2892 5.95129 9.4046 6.56929 8.71663C6.47179 8.47096 6.13022 7.45509 6.667 6.09544C6.667 6.09544 7.4963 5.83328 9.3662 7.1111C10.1668 6.89451 10.9924 6.78433 11.8217 6.7834C12.651 6.7834 13.4964 6.8982 14.2771 7.1111C16.1472 5.83328 16.9765 6.09544 16.9765 6.09544C17.5132 7.45509 17.1715 8.47096 17.074 8.71663C17.7083 9.4046 18.0822 10.2892 18.0822 11.3704C18.0822 15.1711 15.7895 16.0064 13.5941 16.2523C13.952 16.5635 14.2608 17.1532 14.2608 18.087C14.2608 19.4139 14.2447 20.4788 14.2447 20.8063C14.2447 21.0685 14.4236 21.3799 14.9114 21.2816C18.814 19.9708 21.6272 16.2686 21.6272 11.8947C21.6433 6.42294 17.2366 2 11.8217 2Z" fill="#24292F"/>
</svg>
