<svg width="24" height="24" viewBox="0 0 24 24" fill="none" xmlns="http://www.w3.org/2000/svg">
<path d="M14.4679 14.7071C15.0979 14.0771 14.6517 13 13.7608 13H5C4.44772 13 4 12.5523 4 12V12C4 11.4477 4.44772 11 5 11H13.7608C14.6517 11 15.0979 9.92286 14.4679 9.29289L11.2875 6.11253C10.895 5.72003 10.8979 5.08281 11.2938 4.69381V4.69381C11.6848 4.30964 12.3124 4.31241 12.7 4.70003L19.2929 11.2929C19.6834 11.6834 19.6834 12.3166 19.2929 12.7071L12.7 19.3C12.3124 19.6876 11.6848 19.6904 11.2938 19.3062V19.3062C10.8979 18.9172 10.895 18.28 11.2875 17.8875L14.4679 14.7071Z" fill="#1F1F1F"/>
</svg>
