<svg width="24" height="24" viewBox="0 0 24 24" fill="none" xmlns="http://www.w3.org/2000/svg">
<path d="M6.16667 19.5C5.70833 19.5 5.31597 19.3368 4.98958 19.0104C4.66319 18.684 4.5 18.2917 4.5 17.8333V6.16667C4.5 5.70833 4.66319 5.31597 4.98958 4.98958C5.31597 4.66319 5.70833 4.5 6.16667 4.5H17.8333C18.2917 4.5 18.684 4.66319 19.0104 4.98958C19.3368 5.31597 19.5 5.70833 19.5 6.16667V17.8333C19.5 18.2917 19.3368 18.684 19.0104 19.0104C18.684 19.3368 18.2917 19.5 17.8333 19.5H6.16667ZM7.6 15.3667C7.35279 15.6963 7.58798 16.1667 8 16.1667H16C16.412 16.1667 16.6472 15.6963 16.4 15.3667L14.275 12.5333C14.075 12.2667 13.675 12.2667 13.475 12.5333L11.775 14.8C11.575 15.0667 11.175 15.0667 10.975 14.8L9.9 13.3667C9.7 13.1 9.3 13.1 9.1 13.3667L7.6 15.3667Z" fill="#1F1F1F"/>
</svg>
