<svg width="52" height="52" viewBox="0 0 52 52" fill="none" xmlns="http://www.w3.org/2000/svg">
<rect x="1" y="1" width="50" height="50" rx="15" fill="#FFF9E6"/>
<rect x="1" y="1" width="50" height="50" rx="15" stroke="#007C74" stroke-width="2"/>
<path d="M15.1111 40C14.2556 40 13.5231 39.6954 12.9139 39.0861C12.3046 38.4769 12 37.7444 12 36.8889V15.1111C12 14.2556 12.3046 13.5231 12.9139 12.9139C13.5231 12.3046 14.2556 12 15.1111 12H24.4444C25.3036 12 26 12.6964 26 13.5556V13.5556C26 14.4147 25.3036 15.1111 24.4444 15.1111H17.1111C16.0065 15.1111 15.1111 16.0065 15.1111 17.1111V34.8889C15.1111 35.9935 16.0065 36.8889 17.1111 36.8889H24.4444C25.3036 36.8889 26 37.5853 26 38.4444V38.4444C26 39.3036 25.3036 40 24.4444 40H15.1111ZM33.3504 32.6496C32.7322 33.2678 31.7259 33.2544 31.1244 32.6201V32.6201C30.545 32.0091 30.5578 31.0478 31.1532 30.4524L31.2235 30.3821C32.2665 29.339 31.5278 27.5556 30.0527 27.5556H22.8889C22.0298 27.5556 21.3333 26.8591 21.3333 26V26C21.3333 25.1409 22.0298 24.4444 22.8889 24.4444H30.0527C31.5278 24.4444 32.2665 22.661 31.2235 21.6179L31.1532 21.5476C30.5578 20.9522 30.545 19.9909 31.1244 19.3799V19.3799C31.7259 18.7456 32.7322 18.7322 33.3504 19.3504L38.5858 24.5858C39.3668 25.3668 39.3668 26.6332 38.5858 27.4142L33.3504 32.6496Z" fill="#007C74"/>
</svg>
