<svg width="24" height="24" viewBox="0 0 24 24" fill="none" xmlns="http://www.w3.org/2000/svg">
<path d="M18 16H21.65C21.9333 16 22.1708 16.0958 22.3625 16.2875C22.5542 16.4792 22.65 16.7167 22.65 17C22.65 17.2833 22.5542 17.5208 22.3625 17.7125C22.1708 17.9042 21.9333 18 21.65 18H20.4L22.65 20.25C22.8333 20.4333 22.925 20.6625 22.925 20.9375C22.925 21.2125 22.8333 21.45 22.65 21.65C22.45 21.85 22.2125 21.95 21.9375 21.95C21.6625 21.95 21.425 21.85 21.225 21.65L19 19.425V20.65C19 20.9333 18.9042 21.1708 18.7125 21.3625C18.5208 21.5542 18.2833 21.65 18 21.65C17.7167 21.65 17.4792 21.5542 17.2875 21.3625C17.0958 21.1708 17 20.9333 17 20.65V17C17 16.7167 17.0958 16.4792 17.2875 16.2875C17.4792 16.0958 17.7167 16 18 16ZM13 4V8C13 8.28333 13.0958 8.52083 13.2875 8.7125C13.4792 8.90417 13.7167 9 14 9H18L13 4ZM6 2H13.175C13.4417 2 13.6958 2.05 13.9375 2.15C14.1792 2.25 14.3917 2.39167 14.575 2.575L19.425 7.425C19.6083 7.60833 19.75 7.82083 19.85 8.0625C19.95 8.30417 20 8.55833 20 8.825V13C20 13.2833 19.9042 13.5208 19.7125 13.7125C19.5208 13.9042 19.2833 14 19 14H16C15.7167 14 15.4792 14.0958 15.2875 14.2875C15.0958 14.4792 15 14.7167 15 15V21C15 21.2833 14.9042 21.5208 14.7125 21.7125C14.5208 21.9042 14.2833 22 14 22H6C5.45 22 4.97917 21.8042 4.5875 21.4125C4.19583 21.0208 4 20.55 4 20V4C4 3.45 4.19583 2.97917 4.5875 2.5875C4.97917 2.19583 5.45 2 6 2Z" fill="#FFF9E6"/>
</svg>
