<svg width="467" height="226" viewBox="0 0 467 226" fill="none" xmlns="http://www.w3.org/2000/svg">
<g clip-path="url(#clip0_64_26)">
<path d="M430.714 101.239C425.627 83.4009 424.892 62.0721 410.426 50.4611C401.662 43.426 389.078 39.0163 375.097 39.0163H19.4721C13.7707 39.0163 8.3017 39.7496 3.2293 41.0952C-28.0913 49.404 -36.545 89.2785 -51.9525 117.785V117.785V117.785C-37.3455 126.946 -28.4773 142.976 -28.4773 160.218V190.664C-28.4773 210.18 -7.0096 226 19.4721 226H375.097C391.669 226 406.277 219.805 414.89 210.385C424.688 199.67 424.628 183.513 427.762 169.335L437.531 125.147L430.714 101.239Z" fill="#FFF9E6"/>
<path d="M467 69.1987C467 30.9813 424.959 0 373.099 0H21.47C-30.39 0 -72.4309 30.9813 -72.4309 69.1987C-72.4309 93.8894 -78.3586 105.538 -51.9525 117.785C-37.486 124.495 3.11459 138.397 21.47 138.397H197.285H373.099C391.455 138.397 423.065 131.856 437.531 125.147C463.937 112.9 467 93.8894 467 69.1987Z" fill="#FFF9E6"/>
</g>
<g clip-path="url(#clip1_64_26)">
<path d="M36.2865 101.239C41.3732 83.4009 42.108 62.0721 56.5735 50.4611C65.3382 43.426 77.9218 39.0163 91.903 39.0163H447.528C453.229 39.0163 458.698 39.7496 463.771 41.0952C495.091 49.404 503.545 89.2785 518.953 117.785V117.785V117.785C504.346 126.946 495.477 142.976 495.477 160.218V190.664C495.477 210.18 474.01 226 447.528 226H91.903C75.3311 226 60.7227 219.805 52.1101 210.385C42.3122 199.67 42.3725 183.513 39.2382 169.335L29.4689 125.147L36.2865 101.239Z" fill="#FFF9E6"/>
<path d="M0 69.1987C0 30.9813 42.0409 0 93.9009 0H445.53C497.39 0 539.431 30.9813 539.431 69.1987C539.431 93.8894 545.359 105.538 518.953 117.785C504.486 124.495 463.885 138.397 445.53 138.397H269.715H93.9009C75.5455 138.397 43.9354 131.856 29.4689 125.147C3.06278 112.9 0 93.8894 0 69.1987Z" fill="#FFF9E6"/>
</g>
<defs>
<clipPath id="clip0_64_26">
<rect width="301" height="226" fill="white" transform="translate(166)"/>
</clipPath>
<clipPath id="clip1_64_26">
<rect width="301" height="226" fill="white" transform="matrix(-1 0 0 1 301 0)"/>
</clipPath>
</defs>
</svg>
